<svg xmlns="http://www.w3.org/2000/svg" width="1600" height="900" viewBox="0 0 1600 900">
  <defs>
    <style>
      .s{fill:none;stroke:#140A10;stroke-opacity:.14;stroke-width:3;stroke-linecap:round;stroke-linejoin:round}
      .r{fill:none;stroke:#E83046;stroke-opacity:.18;stroke-width:3;stroke-linecap:round;stroke-linejoin:round}
      .w{fill:none;stroke:#DCA046;stroke-opacity:.16;stroke-width:3;stroke-linecap:round;stroke-linejoin:round}
    </style>
  </defs>

  <!-- small stars -->
  <path class="w" d="M210 150 l10 26 l28 2 l-22 16 l8 27 l-24-15 l-24 15 l8-27 l-22-16 l28-2 Z"/>
  <path class="w" d="M1320 210 l8 20 l22 2 l-17 12 l6 21 l-19-12 l-19 12 l6-21 l-17-12 l22-2 Z"/>

  <!-- speech bubble -->
  <path class="s" d="M1180 120 q90-40 180 10 q70 40 10 110 q-60 70-190 35 l-45 35 l12-52 q-40-30-25-78 q12-40 58-60 Z"/>

  <!-- book -->
  <path class="s" d="M220 560 q70-30 140 0 v170 q-70-30-140 0 Z"/>
  <path class="s" d="M360 560 q70-30 140 0 v170 q-70-30-140 0 Z"/>
  <path class="s" d="M360 560 v170"/>

  <!-- lightbulb -->
  <path class="r" d="M1250 560 q0-70 55-105 q55-35 115 0 q60 35 60 105 q0 55-45 95 q-20 18-22 38 h-96 q-2-20-22-38 q-45-40-45-95 Z"/>
  <path class="r" d="M1315 705 h110"/>
  <path class="r" d="M1330 735 h80"/>
  <path class="r" d="M1346 762 h48"/>

  <!-- simple formula-ish lines -->
  <path class="s" d="M700 160 h120"/>
  <path class="s" d="M740 140 v40"/>
  <path class="s" d="M880 150 q20-20 40 0 q20 20 40 0"/>

  <!-- dotted accents -->
  <g fill="#E83046" fill-opacity="0.10">
    <circle cx="520" cy="260" r="3"/><circle cx="548" cy="280" r="3"/><circle cx="576" cy="260" r="3"/>
    <circle cx="1040" cy="720" r="3"/><circle cx="1068" cy="740" r="3"/><circle cx="1096" cy="720" r="3"/>
  </g>
</svg>
