<svg xmlns="http://www.w3.org/2000/svg" width="1600" height="420" viewBox="0 0 1600 420">
  <defs>
    <linearGradient id="mint" x1="0" y1="1" x2="1" y2="0">
      <stop offset="0" stop-color="#1CAA78" stop-opacity="0.12"/>
      <stop offset="1" stop-color="#1CAA78" stop-opacity="0"/>
    </linearGradient>
    <linearGradient id="red2" x1="0" y1="1" x2="1" y2="0">
      <stop offset="0" stop-color="#E83046" stop-opacity="0.16"/>
      <stop offset="1" stop-color="#CC1634" stop-opacity="0.08"/>
    </linearGradient>
  </defs>

  <rect width="1600" height="420" fill="none"/>
  <path d="M0,320 C200,360 420,380 650,340 C880,300 1120,260 1320,300 C1460,330 1540,350 1600,340 L1600,420 L0,420 Z"
        fill="url(#mint)"/>
  <path d="M0,280 C240,330 430,340 650,300 C870,260 1100,220 1320,260 C1460,292 1540,312 1600,300 L1600,420 L0,420 Z"
        fill="url(#red2)"/>
  <path d="M0,250 C260,305 450,315 650,275 C850,235 1100,195 1320,235 C1465,265 1540,285 1600,275"
        fill="none" stroke="#CC1634" stroke-opacity="0.16" stroke-width="3" stroke-linecap="round"/>
</svg>
