<svg xmlns="http://www.w3.org/2000/svg" width="1600" height="420" viewBox="0 0 1600 420">
  <defs>
    <linearGradient id="blueTop" x1="0" y1="0" x2="1" y2="1">
      <stop offset="0" stop-color="#1556D6" stop-opacity="0.18"/>
      <stop offset="1" stop-color="#0A2A8A" stop-opacity="0.08"/>
    </linearGradient>
    <linearGradient id="skyTop" x1="0" y1="0" x2="1" y2="0">
      <stop offset="0" stop-color="#3CBEFF" stop-opacity="0.12"/>
      <stop offset="1" stop-color="#3CBEFF" stop-opacity="0"/>
    </linearGradient>
  </defs>

  <rect width="1600" height="420" fill="none"/>
  <path d="M0,120 C220,40 420,40 640,110 C860,180 1100,210 1320,150 C1440,118 1520,98 1600,110 L1600,0 L0,0 Z"
        fill="url(#blueTop)"/>
  <path d="M0,190 C240,120 420,130 650,200 C880,270 1120,290 1320,240 C1460,205 1540,185 1600,195 L1600,0 L0,0 Z"
        fill="url(#skyTop)"/>
  <path d="M0,260 C240,210 420,220 650,280 C880,340 1120,350 1320,310 C1460,282 1540,266 1600,270"
        fill="none" stroke="#1556D6" stroke-opacity="0.14" stroke-width="3" stroke-linecap="round"/>
</svg>
