<svg xmlns="http://www.w3.org/2000/svg" width="1600" height="420" viewBox="0 0 1600 420">
  <defs>
    <linearGradient id="skyBottom" x1="0" y1="1" x2="1" y2="0">
      <stop offset="0" stop-color="#3CBEFF" stop-opacity="0.14"/>
      <stop offset="1" stop-color="#3CBEFF" stop-opacity="0"/>
    </linearGradient>
    <linearGradient id="blueBottom" x1="0" y1="1" x2="1" y2="0">
      <stop offset="0" stop-color="#1556D6" stop-opacity="0.12"/>
      <stop offset="1" stop-color="#0A2A8A" stop-opacity="0.06"/>
    </linearGradient>
  </defs>

  <rect width="1600" height="420" fill="none"/>
  <path d="M0,320 C200,360 420,380 650,340 C880,300 1120,260 1320,300 C1460,330 1540,350 1600,340 L1600,420 L0,420 Z"
        fill="url(#skyBottom)"/>
  <path d="M0,280 C240,330 430,340 650,300 C870,260 1100,220 1320,260 C1460,292 1540,312 1600,300 L1600,420 L0,420 Z"
        fill="url(#blueBottom)"/>
  <path d="M0,250 C260,305 450,315 650,275 C850,235 1100,195 1320,235 C1465,265 1540,285 1600,275"
        fill="none" stroke="#0A2A8A" stroke-opacity="0.12" stroke-width="3" stroke-linecap="round"/>
</svg>
